<svg width="100" height="100" xmlns="http://www.w3.org/2000/svg" viewBox="0 0 100 100">
  <circle cx="50" cy="50" r="45" fill="none" stroke="#D4AF37" stroke-width="1"/>
  <circle cx="50" cy="50" r="35" fill="none" stroke="#D4AF37" stroke-width="1"/>
  <circle cx="50" cy="50" r="25" fill="none" stroke="#D4AF37" stroke-width="1"/>
  <circle cx="50" cy="50" r="15" fill="none" stroke="#D4AF37" stroke-width="1"/>
  
  <!-- Petals -->
  <path d="M 50 5 Q 60 25 50 45 Q 40 25 50 5" fill="#D4AF37" opacity="0.3"/>
  <path d="M 95 50 Q 75 60 55 50 Q 75 40 95 50" fill="#D4AF37" opacity="0.3"/>
  <path d="M 50 95 Q 40 75 50 55 Q 60 75 50 95" fill="#D4AF37" opacity="0.3"/>
  <path d="M 5 50 Q 25 40 45 50 Q 25 60 5 50" fill="#D4AF37" opacity="0.3"/>
  
  <!-- Diagonal petals -->
  <path d="M 20 20 Q 35 30 35 45 Q 30 35 20 20" fill="#D4AF37" opacity="0.2"/>
  <path d="M 80 20 Q 65 30 65 45 Q 70 35 80 20" fill="#D4AF37" opacity="0.2"/>
  <path d="M 80 80 Q 70 65 65 55 Q 65 70 80 80" fill="#D4AF37" opacity="0.2"/>
  <path d="M 20 80 Q 30 65 35 55 Q 35 70 20 80" fill="#D4AF37" opacity="0.2"/>
  
  <circle cx="50" cy="50" r="8" fill="#800020"/>
</svg>
